<?xml version="1.0" encoding="UTF-8" standalone="no"?>
<!-- Created with Inkscape (http://www.inkscape.org/) -->

<svg
   width="50.8391mm"
   height="9.8677912mm"
   viewBox="0 0 50.8391 9.8677912"
   version="1.1"
   id="svg1"
   xmlns="http://www.w3.org/2000/svg"
   xmlns:svg="http://www.w3.org/2000/svg">
  <defs
     id="defs1" />
  <g
     id="layer1"
     transform="translate(-8.2081333,-5.8365415)">
    <path
       style="font-size:10.5833px;line-height:1.25;font-family:Oswald;-inkscape-font-specification:Oswald;fill:#ffffff;stroke-width:0.264583"
       d="M 19.571062,15.01434 V 6.4418677 h 1.174747 V 15.01434 Z m 2.465901,0 V 8.8971932 h 1.132413 v 0.6032481 q 0.306915,-0.2857491 0.677331,-0.4868318 0.370415,-0.2010827 0.814914,-0.2010827 0.370415,0 0.560915,0.1904994 0.201082,0.1904994 0.275166,0.4762485 0.08467,0.2857491 0.08467,0.5820813 v 4.952984 h -1.132413 v -4.624902 q 0,-0.328082 -0.09525,-0.5079979 -0.09525,-0.1799161 -0.391582,-0.1799161 -0.190499,0 -0.402165,0.1164163 -0.201083,0.105833 -0.391582,0.2645827 v 4.931817 z m 6.275888,0.08467 q -0.476249,0 -0.772581,-0.179916 -0.285749,-0.179916 -0.423332,-0.507999 -0.127,-0.328082 -0.127,-0.772581 V 9.6486075 H 26.344357 V 8.8971932 h 0.645581 V 7.1086156 h 1.132414 v 1.7885776 h 0.984246 v 0.7514143 h -0.984246 v 3.9158205 q 0,0.359833 0.116416,0.518582 0.116416,0.148166 0.444498,0.148166 0.08467,0 0.1905,-0.01058 0.116416,-0.01058 0.222249,-0.02117 v 0.836081 q -0.211666,0.03175 -0.391582,0.04233 -0.179916,0.02117 -0.391582,0.02117 z m 3.323161,0 q -0.719664,0 -1.111246,-0.275166 -0.391582,-0.285749 -0.550332,-0.825497 -0.148166,-0.550332 -0.148166,-1.344079 v -1.396996 q 0,-0.814914 0.15875,-1.3546623 0.158749,-0.5397483 0.550331,-0.8149141 0.402166,-0.2751658 1.100663,-0.2751658 0.772581,0 1.132413,0.317499 0.370416,0.317499 0.486832,0.9207472 0.116417,0.592665 0.116417,1.428745 v 0.497415 h -2.412993 v 1.227663 q 0,0.370416 0.0635,0.603248 0.07408,0.232833 0.222249,0.349249 0.15875,0.105833 0.402166,0.105833 0.253999,0 0.380998,-0.116416 0.137583,-0.127 0.179917,-0.349249 0.05292,-0.232833 0.05292,-0.539748 V 12.8871 h 1.100663 v 0.232833 q 0,0.920747 -0.391582,1.449912 -0.391582,0.529165 -1.333496,0.529165 z m -0.677331,-3.735905 h 1.301746 V 10.81277 q 0,-0.380998 -0.04233,-0.634998 -0.04233,-0.264582 -0.179916,-0.3915816 -0.127,-0.1375829 -0.412749,-0.1375829 -0.275166,0 -0.423332,0.1269996 -0.137583,0.1269996 -0.190499,0.4339149 -0.05292,0.296333 -0.05292,0.825498 z m 3.545401,3.651238 V 6.4418677 h 1.132413 V 15.01434 Z m 2.423575,0 V 6.4418677 H 38.06007 V 15.01434 Z m 2.391829,0 V 8.8971932 h 1.132413 V 15.01434 Z m 0,-7.0273106 V 6.8016999 h 1.132413 v 1.1853295 z"
       id="text1"
       aria-label="Intelli" />
    <path
       style="font-weight:600;font-size:10.5833px;line-height:1.25;font-family:Oswald;-inkscape-font-specification:'Oswald Semi-Bold';fill:#ffffff;stroke-width:0.264583;fill-opacity:1"
       d="m 44.103624,15.14134 q -0.867831,0 -1.375829,-0.359832 -0.507998,-0.370416 -0.730248,-1.037164 -0.211666,-0.677331 -0.211666,-1.566328 V 9.3099419 q 0,-0.9207471 0.22225,-1.5874949 0.222249,-0.6667479 0.772581,-1.0265801 0.560914,-0.3598322 1.513411,-0.3598322 0.920747,0 1.449912,0.3069157 0.539749,0.3069157 0.772581,0.8678306 0.232833,0.5609148 0.232833,1.3334957 V 9.3416918 H 45.045538 V 8.7384437 q 0,-0.3386656 -0.04233,-0.5926648 -0.04233,-0.2645825 -0.201082,-0.4127486 -0.148166,-0.1481662 -0.486832,-0.1481662 -0.349249,0 -0.507998,0.179916 -0.15875,0.1799161 -0.201083,0.4656652 -0.04233,0.2751658 -0.04233,0.5926648 v 3.7994049 q 0,0.359832 0.0635,0.645581 0.0635,0.285749 0.232833,0.444499 0.179916,0.158749 0.507998,0.158749 0.328083,0 0.507999,-0.169333 0.179916,-0.169333 0.243416,-0.455082 0.07408,-0.296332 0.07408,-0.666748 v -0.910163 h -0.836081 v -1.05833 h 2.412992 v 4.402652 h -1.142996 l -0.105833,-0.77258 q -0.169333,0.391582 -0.507998,0.645581 -0.338666,0.253999 -0.910164,0.253999 z m 4.847151,-0.127 V 11.617101 L 47.278614,6.4418677 h 1.640412 l 0.920747,3.0162404 0.857247,-3.0162404 h 1.587495 L 50.63352,11.617101 v 3.397239 z m 3.96873,0 0.148166,-8.5724723 h 1.852078 l 1.05833,5.4080663 1.132413,-5.4080663 h 1.788577 L 59.047235,15.01434 H 57.77724 L 57.639657,9.2041089 56.549577,15.01434 h -1.09008 L 54.316501,9.1617757 54.200084,15.01434 Z"
       id="text2"
       aria-label="GYM" />
    <g
       id="g10"
       transform="translate(1.5204396,-0.54801293)">
      <path
         style="fill:none;stroke:#ffffff;stroke-width:0.529167;stroke-linecap:butt;stroke-linejoin:miter;stroke-dasharray:none;stroke-opacity:1"
         d="m 10.583799,6.6491379 c -1.4532909,2e-7 -3.1326138,1.1217437 -3.5655514,2.5090503 -0.3452008,1.1061628 0.7547191,2.1928628 1.2005413,3.2624428 0.2254268,0.540826 0.7443051,1.592418 0.7443051,1.592418 h 3.241411 c 0,0 0.41197,-1.021737 0.617034,-1.532976 C 13.265474,11.37331 14.48882,10.301324 14.149351,9.1581869 13.735635,7.7650274 12.03709,6.6491376 10.583799,6.6491379 Z"
         id="path2" />
      <rect
         style="vector-effect:non-scaling-stroke;fill:#ffffff;stroke:#808080;stroke-width:0.0700042;stroke-linejoin:round;-inkscape-stroke:hairline;fill-opacity:1"
         id="rect2"
         width="2.9634173"
         height="0.47950831"
         x="9.1020908"
         y="14.47821" />
      <rect
         style="vector-effect:non-scaling-stroke;fill:#ffffff;stroke:#808080;stroke-width:0.0700042;stroke-linejoin:round;-inkscape-stroke:hairline;fill-opacity:1"
         id="rect3"
         width="2.5923104"
         height="0.47950831"
         x="9.2876444"
         y="15.125525" />
      <rect
         style="vector-effect:non-scaling-stroke;fill:#ffffff;stroke:#808080;stroke-width:0.0700042;stroke-linejoin:round;-inkscape-stroke:hairline;fill-opacity:1"
         id="rect4"
         width="2.1017489"
         height="0.47950831"
         x="9.5329256"
         y="15.772838" />
      <rect
         style="fill:#f9f9f9;stroke:none;stroke-width:0.529167;stroke-linejoin:round;stroke-dasharray:none;stroke-opacity:1"
         id="rect5"
         width="0.59263062"
         height="1.9005494"
         x="8.5094604"
         y="8.2773647" />
      <rect
         style="fill:#f9f9f9;stroke:none;stroke-width:0.529167;stroke-linejoin:round;stroke-dasharray:none;stroke-opacity:1"
         id="rect6"
         width="0.59263062"
         height="1.9005494"
         x="12.065508"
         y="8.2773647" />
      <rect
         style="fill:#f9f9f9;stroke:none;stroke-width:0.529167;stroke-linejoin:round;stroke-dasharray:none;stroke-opacity:1"
         id="rect7"
         width="0.59263062"
         height="1.3541415"
         x="7.9168301"
         y="8.5505686" />
      <rect
         style="fill:#f9f9f9;stroke:none;stroke-width:0.529167;stroke-linejoin:round;stroke-dasharray:none;stroke-opacity:1"
         id="rect8"
         width="0.59263062"
         height="1.3541415"
         x="12.658138"
         y="8.5505686" />
      <path
         style="fill:none;stroke:#ffffff;stroke-width:0.264583px;stroke-linecap:butt;stroke-linejoin:miter;stroke-opacity:1"
         d="M 9.1020907,9.2276395 H 12.065508"
         id="path8" />
      <path
         style="fill:none;stroke:#ffffff;stroke-width:0.264583px;stroke-linecap:butt;stroke-linejoin:miter;stroke-opacity:1"
         d="m 8.8376123,10.643076 v 3.369973"
         id="path9" />
      <path
         style="fill:none;stroke:#ffffff;stroke-width:0.264583px;stroke-linecap:butt;stroke-linejoin:miter;stroke-opacity:1"
         d="m 12.330112,10.643076 v 3.369973"
         id="path10" />
    </g>
  </g>
</svg>
